<svg width="106" height="106" viewBox="0 0 106 106" fill="none" xmlns="http://www.w3.org/2000/svg">
<path d="M37.2462 18.3777L91.7435 30.144C91.8951 30.177 92.0387 30.2396 92.1659 30.3283C92.2937 30.417 92.4023 30.53 92.4861 30.6608C92.5693 30.7917 92.6265 30.9378 92.653 31.0907C92.68 31.2436 92.6763 31.4003 92.6424 31.5518L79.3209 90.857C79.2859 91.0107 79.2207 91.1559 79.129 91.2842C79.0368 91.4125 78.9202 91.5206 78.7856 91.6027C78.6509 91.6849 78.5015 91.7395 78.3451 91.7623C78.1893 91.7856 78.0303 91.7771 77.8777 91.7379L21.0467 77.0341C20.8956 76.9949 20.7538 76.926 20.6295 76.8311C20.5053 76.7368 20.4011 76.6186 20.323 76.4834C20.2449 76.3483 20.1944 76.1988 20.1746 76.0441C20.1547 75.8888 20.1659 75.7319 20.2074 75.5814L35.8641 19.217C35.9438 18.9271 36.1314 18.6787 36.3883 18.5226C36.6453 18.3666 36.9522 18.3147 37.2462 18.3777Z" fill="#323233"/>
<path d="M34.6307 14.1357L89.1279 25.9117C89.2794 25.9447 89.4231 26.0073 89.5508 26.096C89.678 26.1847 89.7867 26.2977 89.8704 26.4285C89.9541 26.5594 90.0108 26.7055 90.0379 26.8584C90.0649 27.0113 90.0612 27.168 90.0273 27.3195L76.7052 86.614C76.6707 86.7677 76.6055 86.9129 76.5133 87.0412C76.4216 87.1689 76.305 87.2776 76.1704 87.3597C76.0358 87.4419 75.8858 87.4965 75.73 87.5193C75.5742 87.5426 75.4146 87.5341 75.262 87.4949L18.4312 72.7879C18.2801 72.7482 18.1383 72.6793 18.0141 72.5849C17.8899 72.4901 17.7857 72.3719 17.7077 72.2362C17.6297 72.101 17.5794 71.9516 17.5597 71.7968C17.54 71.6415 17.5513 71.4846 17.593 71.3341L33.2486 14.9707C33.3292 14.6817 33.5171 14.4343 33.774 14.2791C34.0309 14.1239 34.3373 14.0726 34.6307 14.1357Z" fill="#F4B6D2"/>
<path d="M32.8729 16.9628C32.7739 16.9629 32.6762 16.9401 32.5874 16.8962C32.4986 16.8523 32.4212 16.7884 32.3612 16.7097C32.3012 16.6309 32.2602 16.5393 32.2415 16.4421C32.2227 16.3448 32.2267 16.2446 32.2531 16.1492L32.6299 14.7928C32.7546 14.345 33.0459 13.9619 33.444 13.722C33.8421 13.4821 34.3169 13.4037 34.771 13.5028L41.3228 14.917C41.4057 14.9342 41.4844 14.9678 41.5543 15.0156C41.6241 15.0635 41.6839 15.1247 41.7301 15.1957C41.7762 15.2668 41.8079 15.3462 41.8232 15.4295C41.8385 15.5128 41.8372 15.5983 41.8193 15.6811C41.8015 15.7639 41.7674 15.8424 41.7191 15.912C41.6708 15.9816 41.6092 16.0409 41.5379 16.0866C41.4666 16.1323 41.3869 16.1634 41.3035 16.1782C41.2201 16.193 41.1346 16.1911 41.0519 16.1727L34.5002 14.7574C34.3669 14.729 34.2278 14.7525 34.1112 14.8231C33.9946 14.8937 33.9093 15.0062 33.8728 15.1375L33.4971 16.4928C33.4592 16.6289 33.3775 16.7486 33.2647 16.8336C33.1519 16.9186 33.0142 16.9639 32.8729 16.9628ZM31.114 23.2972C31.0558 23.2973 30.9978 23.2894 30.9417 23.2736C30.8603 23.2511 30.7842 23.2128 30.7177 23.1608C30.6512 23.1088 30.5955 23.0443 30.554 22.9708C30.5124 22.8973 30.4857 22.8164 30.4755 22.7326C30.4652 22.6488 30.4716 22.5638 30.4942 22.4825L31.3057 19.5599C31.3513 19.3957 31.4602 19.2562 31.6086 19.1723C31.7569 19.0884 31.9326 19.0669 32.0968 19.1124C32.261 19.158 32.4005 19.2669 32.4844 19.4153C32.5683 19.5637 32.5899 19.7393 32.5443 19.9036L31.7317 22.8261C31.6943 22.9613 31.6137 23.0805 31.5022 23.1656C31.3906 23.2507 31.2543 23.2969 31.114 23.2972Z" fill="#323233"/>
<path d="M29.7534 28.1945C29.6543 28.1947 29.5564 28.1719 29.4675 28.1279C29.3787 28.084 29.3012 28.02 29.2411 27.9411C29.1811 27.8622 29.1402 27.7705 29.1215 27.6731C29.1028 27.5757 29.1069 27.4753 29.1335 27.3798L30.4942 22.4831C30.5154 22.4003 30.5528 22.3225 30.6044 22.2544C30.656 22.1862 30.7207 22.1291 30.7947 22.0863C30.8686 22.0434 30.9504 22.0158 31.0352 22.0049C31.12 21.9941 31.206 22.0003 31.2884 22.0232C31.3708 22.046 31.4477 22.0851 31.5148 22.1381C31.5819 22.1911 31.6377 22.257 31.679 22.3318C31.7203 22.4067 31.7462 22.489 31.7553 22.574C31.7643 22.659 31.7563 22.7449 31.7318 22.8268L30.3721 27.7235C30.3347 27.8588 30.2539 27.9782 30.1422 28.0632C30.0304 28.1484 29.8939 28.1944 29.7534 28.1945ZM15.5772 67.3292C15.4782 67.3292 15.3805 67.3069 15.2917 67.2629C15.203 67.219 15.1255 67.1548 15.0655 67.0764C15.0055 66.9974 14.9645 66.9057 14.9458 66.8087C14.927 66.7112 14.931 66.611 14.9574 66.5156L16.3716 61.4266C16.4199 61.2655 16.5293 61.1298 16.6765 61.0487C16.8236 60.9676 16.9967 60.9469 17.1586 60.992C17.3206 61.037 17.4584 61.1436 17.5426 61.2893C17.6268 61.4345 17.6507 61.6073 17.6091 61.77L16.1939 66.8639C16.1555 66.9974 16.0747 67.1156 15.9634 67.1993C15.8522 67.2836 15.7166 67.3292 15.5772 67.3292ZM14.8803 74.3114C14.8258 74.3109 14.7714 74.304 14.7186 74.2902C14.4849 74.2293 14.2654 74.1227 14.0733 73.9765C13.8811 73.8302 13.72 73.6468 13.5993 73.4374C13.4787 73.2286 13.4009 72.997 13.3704 72.7575C13.34 72.5179 13.3577 72.2746 13.4222 72.042L14.3172 68.8196C14.3717 68.6664 14.4823 68.5397 14.6267 68.4645C14.7711 68.3897 14.9385 68.3722 15.0952 68.4162C15.2518 68.4597 15.3861 68.5614 15.4708 68.7003C15.5555 68.8392 15.5843 69.0051 15.5515 69.1641L14.6566 72.3865C14.6377 72.4548 14.6326 72.5264 14.6415 72.5969C14.6505 72.6674 14.6734 72.7352 14.7089 72.7967C14.7444 72.8582 14.7917 72.9117 14.8481 72.9551C14.9046 72.9981 14.969 73.0293 15.0377 73.0474C15.1891 73.0861 15.3211 73.1793 15.4089 73.3087C15.4966 73.438 15.5342 73.5949 15.5145 73.7501C15.4948 73.9054 15.4192 74.048 15.3019 74.1514C15.1845 74.2547 15.0335 74.3114 14.8771 74.3114H14.8803ZM24.4125 81.5634C24.3579 81.5634 24.3036 81.5565 24.2508 81.5427L19.8391 80.4006C19.7547 80.382 19.6748 80.3471 19.6043 80.2972C19.5339 80.2469 19.4742 80.1833 19.4289 80.1096C19.3837 80.0359 19.3537 79.9543 19.3408 79.8685C19.328 79.7831 19.3325 79.6962 19.3541 79.6125C19.3758 79.5287 19.414 79.4503 19.4667 79.3819C19.5193 79.3136 19.5852 79.2563 19.6605 79.2139C19.7357 79.171 19.8188 79.1445 19.9046 79.1349C19.9906 79.1254 20.0775 79.1328 20.1602 79.1577L24.573 80.2988C24.7245 80.338 24.8564 80.4308 24.9442 80.5606C25.032 80.69 25.0695 80.8468 25.0499 81.0021C25.0302 81.1569 24.9545 81.2995 24.8372 81.4028C24.7199 81.5062 24.5688 81.5634 24.4125 81.5634ZM49.824 18.0543C49.7779 18.0544 49.732 18.0497 49.6869 18.0404L43.8397 16.7771C43.674 16.7403 43.5298 16.6394 43.4383 16.4966C43.3468 16.3537 43.3155 16.1805 43.3513 16.0147C43.387 15.8489 43.4869 15.704 43.6292 15.6115C43.7714 15.5191 43.9444 15.4867 44.1105 15.5214L49.9589 16.7846C50.1133 16.8186 50.2497 16.9082 50.3421 17.0365C50.4346 17.1648 50.4764 17.3226 50.4597 17.4798C50.443 17.637 50.3689 17.7825 50.2516 17.8885C50.1343 17.9945 49.9821 18.0536 49.824 18.0543Z" fill="#323233"/>
<path d="M38.0513 19.0225L83.121 28.8608C83.3367 28.9078 83.5413 28.9973 83.722 29.1238C83.9027 29.2504 84.057 29.4116 84.1751 29.5981C84.2928 29.7846 84.3728 29.9928 84.4099 30.2104C84.447 30.428 84.4407 30.6509 84.3909 30.8659L82.2057 40.3531C82.1569 40.5676 82.0658 40.7703 81.938 40.9495C81.8103 41.1287 81.6486 41.2808 81.4616 41.3971C81.275 41.5135 81.0672 41.5917 80.8499 41.6273C80.6326 41.6629 80.4106 41.6552 80.1964 41.6046L35.0452 30.8992C34.8286 30.8478 34.6245 30.7536 34.4449 30.6222C34.2653 30.4909 34.1138 30.3249 33.9993 30.134C33.8848 29.9432 33.8096 29.7314 33.7781 29.5111C33.7467 29.2908 33.7596 29.0664 33.8162 28.8512L36.0804 20.2333C36.1891 19.8161 36.4549 19.4572 36.8222 19.2315C37.1896 19.0058 37.63 18.9309 38.0513 19.0225ZM35.1426 39.3704L42.6835 41.2642C42.8798 41.3136 43.0639 41.4026 43.2244 41.5258C43.385 41.649 43.5187 41.8038 43.6172 41.9806C43.7156 42.1574 43.7769 42.3526 43.7971 42.5539C43.8173 42.7553 43.7961 42.9587 43.7348 43.1516L41.4449 50.3371C41.3315 50.6936 41.0876 50.994 40.7619 51.1781C40.4363 51.3621 40.0531 51.4163 39.6892 51.3295L32.2521 49.5599C32.056 49.5132 31.8714 49.427 31.7098 49.3066C31.5481 49.1861 31.4127 49.034 31.3119 48.8594C31.2111 48.6848 31.147 48.4915 31.1234 48.2913C31.0999 48.0911 31.1175 47.8881 31.1752 47.695L33.3558 40.3842C33.4651 40.0172 33.7121 39.7067 34.0452 39.5178C34.3782 39.3288 34.7715 39.276 35.1426 39.3704ZM27.1895 64.0861L29.0833 56.5453C29.1328 56.3492 29.2218 56.1658 29.3449 56.0057C29.468 55.8457 29.6225 55.7121 29.799 55.6141C29.9754 55.516 30.1702 55.4551 30.3711 55.4349C30.5721 55.4148 30.775 55.436 30.9674 55.4969L38.154 57.7871C38.5103 57.9005 38.8105 58.1448 38.9943 58.4702C39.1783 58.7957 39.2322 59.1788 39.1453 59.543L37.379 66.9767C37.3316 67.1723 37.2449 67.3562 37.1241 67.5168C37.0033 67.6779 36.8511 67.8125 36.6766 67.9127C36.5021 68.0129 36.309 68.0765 36.1092 68.0993C35.9093 68.1226 35.7068 68.1046 35.514 68.0473L28.2044 65.8674C27.8383 65.7583 27.5285 65.5123 27.3394 65.1806C27.1504 64.8488 27.0966 64.4566 27.1895 64.0861ZM47.8253 51.8337L49.7191 44.2927C49.7685 44.0965 49.8575 43.9124 49.9807 43.7518C50.1039 43.5912 50.2588 43.4576 50.4356 43.3591C50.6124 43.2606 50.8075 43.1993 51.0089 43.1792C51.2102 43.1589 51.4136 43.1801 51.6065 43.2415L58.7919 45.5313C59.1486 45.6447 59.4491 45.8887 59.633 46.2143C59.8169 46.5399 59.8709 46.9232 59.7845 47.2871L58.0149 54.7189C57.9682 54.915 57.8818 55.0994 57.7615 55.2611C57.6412 55.4227 57.4891 55.5584 57.3142 55.6591C57.1399 55.7598 56.9464 55.8239 56.7461 55.8473C56.5463 55.8711 56.3433 55.8536 56.1498 55.7959L48.8391 53.6149C48.4733 53.5057 48.1637 53.2598 47.9749 52.9278C47.786 52.5959 47.7325 52.204 47.8253 51.8337ZM47.3532 60.7545L54.9393 62.458C55.1364 62.5019 55.323 62.5867 55.4868 62.7055C55.65 62.8247 55.7878 62.9763 55.8906 63.1507C55.9935 63.325 56.0597 63.5185 56.0846 63.7194C56.1101 63.9202 56.0942 64.1237 56.0375 64.3183L53.9286 71.5596C53.8242 71.9185 53.5878 72.2248 53.2666 72.4172C52.946 72.609 52.5644 72.6732 52.1985 72.5958L44.725 71.0137C44.5276 70.9719 44.3408 70.8903 44.176 70.7742C44.0112 70.6576 43.8718 70.5092 43.7665 70.3369C43.6612 70.1647 43.592 69.9728 43.5634 69.7735C43.5347 69.5737 43.5472 69.3702 43.5999 69.1757L45.5954 61.8135C45.6953 61.4441 45.934 61.1282 46.2615 60.9305C46.5891 60.7333 46.9802 60.6703 47.3532 60.7545ZM67.6625 46.9295L76.7785 49.1648C77.1569 49.2581 77.4828 49.4976 77.6853 49.8309C77.8878 50.1642 77.9492 50.5641 77.8576 50.943L71.7371 76.2077C71.6915 76.397 71.6088 76.575 71.4938 76.7319C71.3794 76.8888 71.2347 77.0213 71.0683 77.122C70.9018 77.2227 70.7174 77.2895 70.525 77.3186C70.3326 77.3478 70.137 77.3382 69.9484 77.2911L60.5329 74.9363C60.3442 74.8891 60.1672 74.8054 60.0114 74.6893C59.855 74.5738 59.7236 74.4285 59.6245 74.2616C59.5248 74.0946 59.4591 73.9102 59.4316 73.7178C59.4035 73.5259 59.4141 73.3298 59.4623 73.1417L65.8854 47.9926C65.9824 47.6174 66.2235 47.2955 66.5558 47.0965C66.8887 46.8975 67.2862 46.8375 67.6625 46.9295Z" fill="white"/>
<path d="M36.5268 48.3743C36.4255 48.3743 36.3256 48.3504 36.2353 48.3044C36.1449 48.2584 36.0668 48.1917 36.0072 48.1097C35.9476 48.0278 35.9082 47.9329 35.8923 47.8328C35.8763 47.7327 35.8843 47.6303 35.9156 47.5339L37.7751 41.7883C37.8276 41.6262 37.9424 41.4915 38.0942 41.414C38.246 41.3365 38.4223 41.3225 38.5845 41.375C38.7466 41.4276 38.8812 41.5424 38.9587 41.6941C39.0362 41.8459 39.0502 42.0222 38.9977 42.1843L37.1381 47.93C37.0963 48.0591 37.0145 48.1717 36.9047 48.2515C36.7949 48.3313 36.6626 48.3743 36.5268 48.3743Z" fill="#323233"/>
<path d="M40.355 46.3465C40.2938 46.3464 40.2329 46.3377 40.174 46.3208L34.3781 44.6261C34.2146 44.5784 34.0767 44.4677 33.9948 44.3184C33.9128 44.169 33.8937 43.9932 33.9414 43.8296C33.9891 43.6661 34.0998 43.5282 34.2491 43.4463C34.3985 43.3644 34.5743 43.3452 34.7378 43.3929L40.5348 45.0876C40.6833 45.1309 40.8111 45.2263 40.8948 45.3562C40.9786 45.4862 41.0127 45.642 40.9908 45.795C40.969 45.9481 40.8926 46.0881 40.7759 46.1894C40.6591 46.2908 40.5096 46.3465 40.355 46.3465ZM30.5071 63.8348C30.3638 63.8353 30.2246 63.7876 30.1115 63.6996C29.9985 63.6116 29.9181 63.4881 29.8832 63.3493C29.8482 63.2104 29.8607 63.0636 29.9187 62.9327C29.9766 62.8018 30.0767 62.6942 30.203 62.6264L35.5236 59.7691C35.6731 59.6944 35.8458 59.6812 36.005 59.7315C36.1642 59.7824 36.2974 59.8932 36.3764 60.04C36.4554 60.1873 36.4739 60.3596 36.428 60.5201C36.3821 60.6807 36.2754 60.8175 36.1306 60.9007L30.8111 63.759C30.7176 63.8088 30.6131 63.8353 30.5071 63.8348Z" fill="#323233"/>
<path d="M34.6715 65.0242C34.5586 65.0247 34.4478 64.995 34.35 64.9383C34.2523 64.8822 34.1712 64.8011 34.1148 64.703L31.1055 59.4661C31.0203 59.3182 30.9973 59.1428 31.0416 58.978C31.0859 58.8131 31.1937 58.6727 31.3415 58.5879C31.4893 58.5025 31.6649 58.4798 31.8296 58.5237C31.9943 58.5683 32.1347 58.6759 32.2199 58.8237L35.2281 64.0596C35.2845 64.1576 35.3142 64.2684 35.3142 64.3813C35.3142 64.4937 35.2845 64.6044 35.228 64.7025C35.1716 64.8 35.0904 64.8811 34.9928 64.9373C34.895 64.994 34.7843 65.0237 34.6715 65.0231V65.0242ZM56.8446 50.8526C56.7804 50.8529 56.7163 50.8432 56.6553 50.8236L51.0658 49.0926C50.9029 49.0422 50.7668 48.9292 50.6873 48.7784C50.6078 48.6276 50.5915 48.4514 50.6419 48.2886C50.6923 48.1258 50.8053 47.9896 50.956 47.9101C51.1068 47.8306 51.283 47.8143 51.4458 47.8646L57.0354 49.5957C57.1816 49.6413 57.3072 49.738 57.3889 49.8682C57.4705 49.9985 57.5028 50.1536 57.4795 50.3055C57.4567 50.4575 57.3799 50.5961 57.2633 50.6963C57.1467 50.7964 56.9983 50.8515 56.8446 50.8515V50.8526ZM52.8547 68.1687C52.8079 68.1687 52.7612 68.1639 52.7155 68.1538L47.002 66.8935C46.8356 66.8569 46.6906 66.7557 46.5989 66.6121C46.5071 66.4684 46.4761 66.2946 46.5127 66.1282C46.5494 65.9618 46.6506 65.8165 46.7942 65.7248C46.9377 65.6332 47.1118 65.6024 47.2782 65.639L52.9917 66.8988C53.1462 66.9327 53.283 67.0228 53.3752 67.1511C53.4674 67.2799 53.5093 67.4378 53.4923 67.5952C53.4753 67.7526 53.4011 67.8979 53.2835 68.0039C53.1653 68.1098 53.0132 68.1681 52.8547 68.1687ZM72.0836 59.7883C72.037 59.7883 71.9904 59.783 71.9448 59.7735L66.2314 58.5131C66.1487 58.4951 66.0708 58.4607 66.0019 58.4124C65.9325 58.3642 65.8736 58.3022 65.8281 58.2312C65.783 58.1602 65.7523 58.0807 65.7374 57.9975C65.7226 57.9142 65.7247 57.8294 65.7427 57.7468C65.7613 57.6646 65.7957 57.5867 65.8439 57.5173C65.8922 57.4484 65.9542 57.3895 66.0252 57.344C66.0962 57.2989 66.1757 57.2676 66.2589 57.2533C66.3422 57.2385 66.427 57.2406 66.5096 57.2586L72.223 58.519C72.3778 58.5529 72.514 58.6425 72.6068 58.7713C72.699 58.8995 72.7408 59.0575 72.7239 59.2149C72.7069 59.3723 72.6322 59.518 72.5145 59.6235C72.3969 59.7295 72.2442 59.7883 72.0858 59.7883H72.0836ZM71.5176 63.0367C71.471 63.0362 71.4243 63.0314 71.3782 63.0213L65.6648 61.7605C65.5037 61.7186 65.3648 61.6163 65.2774 61.4743C65.1905 61.3322 65.1618 61.1621 65.1979 60.9994C65.2339 60.8372 65.3314 60.6946 65.4703 60.6029C65.6092 60.5107 65.7782 60.4763 65.942 60.5065L71.6554 61.7668C71.8102 61.8007 71.9469 61.8908 72.0391 62.0191C72.1319 62.1479 72.1732 62.3063 72.1562 62.4638C72.1393 62.6212 72.0646 62.7664 71.9464 62.8724C71.8287 62.9779 71.6761 63.0367 71.5176 63.0367ZM51.0936 65.3008C51.0335 65.3008 50.9737 65.2924 50.9159 65.2759L50.0381 65.0231C49.9558 65.0009 49.8788 64.9627 49.8116 64.9102C49.7443 64.8583 49.6881 64.7931 49.6463 64.7189C49.6044 64.6442 49.5778 64.5626 49.5679 64.4778C49.5581 64.3935 49.5651 64.3076 49.5887 64.2255C49.6122 64.1439 49.6519 64.0675 49.7053 64.0008C49.7587 63.9345 49.8247 63.8794 49.8996 63.8386C49.9745 63.7983 50.0568 63.7729 50.1415 63.7644C50.2263 63.7559 50.312 63.7644 50.3935 63.7893L51.2713 64.0416C51.4196 64.085 51.5473 64.1799 51.6311 64.3098C51.7148 64.4396 51.7491 64.5954 51.7275 64.7481C51.7059 64.9012 51.63 65.0412 51.5135 65.1424C51.3972 65.2441 51.2481 65.3003 51.0936 65.3008ZM49.8229 70.2166C49.7628 70.2166 49.703 70.2087 49.6452 70.1922L48.7684 69.9394C48.6853 69.9177 48.6074 69.8801 48.5392 69.8281C48.471 69.7756 48.4139 69.7105 48.3714 69.6363C48.3288 69.5615 48.3016 69.4794 48.2914 69.394C48.2811 69.3092 48.288 69.2229 48.3117 69.1402C48.3354 69.0575 48.3753 68.9806 48.4292 68.9139C48.4831 68.8471 48.5498 68.792 48.6254 68.7512C48.7009 68.7109 48.7839 68.686 48.8694 68.678C48.9548 68.6701 49.0409 68.6791 49.1227 68.705L50.0006 68.9568C50.1498 68.9992 50.2784 69.0941 50.363 69.2239C50.4475 69.3543 50.4822 69.5106 50.4605 69.6638C50.4388 69.8175 50.3623 69.958 50.2452 70.0597C50.128 70.1615 49.978 70.2171 49.8229 70.2166ZM84.2143 85.6762C84.166 85.6762 84.1178 85.6709 84.0707 85.6592C83.9885 85.6401 83.9106 85.6057 83.8417 85.5564C83.7733 85.5076 83.7145 85.4456 83.67 85.3746C83.6249 85.3031 83.5947 85.223 83.5804 85.1398C83.5666 85.0566 83.5693 84.9718 83.5878 84.8896L86.9141 70.4106C86.956 70.2484 87.0593 70.109 87.2024 70.0226C87.3455 69.9357 87.5167 69.9081 87.68 69.9452C87.8432 69.9829 87.9847 70.0825 88.0759 70.2235C88.1665 70.3639 88.1988 70.5341 88.1654 70.6984L84.8402 85.1774C84.8079 85.319 84.7284 85.4456 84.6144 85.5363C84.501 85.6269 84.3595 85.6762 84.2143 85.6762ZM82.6359 92.545C82.5877 92.545 82.54 92.5397 82.4928 92.5291C82.4107 92.51 82.3328 92.475 82.2639 92.4263C82.195 92.3775 82.1367 92.3155 82.0916 92.2439C82.0471 92.1724 82.0169 92.0929 82.0026 92.0097C81.9888 91.9265 81.9909 91.8417 82.01 91.759L82.9078 87.8465C82.9269 87.7638 82.9619 87.6865 83.0107 87.6176C83.0599 87.5487 83.1219 87.4904 83.1935 87.4458C83.265 87.4008 83.3446 87.3706 83.4278 87.3568C83.511 87.3425 83.5963 87.3451 83.6785 87.3642C83.7606 87.3828 83.8385 87.4177 83.9069 87.467C83.9758 87.5158 84.0341 87.5778 84.0791 87.6494C84.1237 87.7209 84.1539 87.8004 84.1682 87.8836C84.1819 87.9668 84.1793 88.0522 84.1607 88.1343L83.2624 92.0441C83.2306 92.1862 83.1511 92.3134 83.0372 92.404C82.9232 92.4952 82.7817 92.545 82.6359 92.545ZM88.0133 69.1365C87.9651 69.1365 87.9163 69.1312 87.8692 69.1206C87.7033 69.0819 87.5591 68.9796 87.469 68.8354C87.3784 68.6907 87.3492 68.5164 87.3874 68.3505L87.5104 67.8152C87.5485 67.6493 87.6513 67.5051 87.7955 67.4145C87.9402 67.3244 88.1146 67.2947 88.2804 67.3329C88.4469 67.371 88.591 67.4739 88.6811 67.6185C88.7718 67.7627 88.8009 67.9371 88.7627 68.1035L88.6387 68.6388C88.6059 68.7798 88.5264 68.9064 88.4129 68.9965C88.2995 69.0872 88.1585 69.1365 88.0133 69.1365ZM88.7225 66.0503C88.6737 66.0497 88.6249 66.0444 88.5778 66.0338C88.4119 65.9957 88.2677 65.8934 88.1776 65.7487C88.087 65.6045 88.0578 65.4302 88.096 65.2643L90.2573 55.851C90.2764 55.7688 90.3114 55.6909 90.3602 55.622C90.4089 55.5536 90.4709 55.4948 90.5425 55.4503C90.614 55.4052 90.6941 55.375 90.7773 55.3612C90.8605 55.3475 90.9453 55.3496 91.0274 55.3686C91.1101 55.3877 91.1875 55.4227 91.2564 55.4715C91.3253 55.5202 91.3836 55.5822 91.4281 55.6538C91.4732 55.7253 91.5034 55.8048 91.5172 55.8881C91.5315 55.9713 91.5288 56.0566 91.5097 56.1387L89.3473 65.5521C89.315 65.6936 89.235 65.8197 89.1216 65.9104C89.0081 66.0005 88.8672 66.0497 88.7225 66.0503Z" fill="#323233"/>
</svg>
