<svg width="32" height="32" viewBox="0 0 32 32" fill="none" xmlns="http://www.w3.org/2000/svg">
<g clip-path="url(#clip0_446_15201)">
<path d="M26.0697 31.0148H30.293V13.0223L26.0697 10.4629V31.0148Z" fill="#D4ECCD"/>
<path d="M4.4248 23.0703H7.70274V19.5906H4.4248V23.0703Z" fill="#D4ECCD"/>
<path d="M10.4443 23.0703H13.7223V19.5906H10.4443V23.0703Z" fill="#D4ECCD"/>
<path d="M4.4248 16.6211H7.70274V13.1413H4.4248V16.6211Z" fill="#D4ECCD"/>
<path d="M10.4443 16.6211H13.7223V13.1413H10.4443V16.6211Z" fill="#D4ECCD"/>
<path d="M4.4248 10.168H7.70274V6.68822H4.4248V10.168Z" fill="#D4ECCD"/>
<path d="M10.4463 10.168H13.7242V6.68822H10.4463V10.168Z" fill="#D4ECCD"/>
<path d="M23.3506 23.0579H19.1668C18.8216 23.0579 18.5418 22.7781 18.5418 22.4329V18.9531C18.5418 18.6079 18.8216 18.3281 19.1668 18.3281H23.3506C23.6958 18.3281 23.9756 18.6079 23.9756 18.9531V22.4329C23.9756 22.7781 23.6958 23.0579 23.3506 23.0579ZM22.7256 19.5781H19.7918V21.8079H22.7256V19.5781Z" fill="#020288"/>
<path d="M23.3506 15.9641H19.1668C18.8216 15.9641 18.5418 15.6843 18.5418 15.3391V11.8594C18.5418 11.5142 18.8216 11.2344 19.1668 11.2344H23.3506C23.6958 11.2344 23.9756 11.5142 23.9756 11.8594V15.3391C23.9756 15.6843 23.6958 15.9641 23.3506 15.9641ZM22.7256 12.4844H19.7918V14.7141H22.7256V12.4844Z" fill="#020288"/>
<path d="M0.625 30.3875H1.07931V4.19152C1.07931 3.89739 1.28431 3.64314 1.57175 3.58077L16.3129 0.381453C16.4977 0.341266 16.6906 0.387016 16.8377 0.505703C16.9849 0.624328 17.0704 0.803203 17.0704 0.992266V3.1437L26.2696 6.20077C26.5251 6.28564 26.6975 6.52464 26.6975 6.79389V30.3875H31.375C31.7202 30.3875 32 30.6673 32 31.0125C32 31.3577 31.7202 31.6375 31.375 31.6375H0.625C0.279875 31.6375 0 31.3577 0 31.0125C0 30.6673 0.279875 30.3875 0.625 30.3875ZM25.4475 7.24477L17.0704 4.46089V30.3875H18.9719V26.2939C18.9719 25.9487 19.2517 25.6689 19.5969 25.6689H22.9211C23.2662 25.6689 23.5461 25.9487 23.5461 26.2939V30.3875H25.4475V7.24477ZM22.2961 30.3875V26.9188H20.2219V30.3875H22.2961ZM10.7512 30.3875V26.9188H7.3985V30.3875H10.7512ZM6.1485 30.3875V26.2938C6.1485 25.9486 6.42838 25.6688 6.7735 25.6688H11.3762C11.7214 25.6688 12.0012 25.9486 12.0012 26.2938V30.3875H15.8204V1.76745L2.32931 4.69545V30.3875H6.1485V30.3875Z" fill="#020288"/>
</g>
<defs>
<clipPath id="clip0_446_15201">
<rect width="32" height="32" fill="white" transform="matrix(-1 0 0 1 32 0)"/>
</clipPath>
</defs>
</svg>
